HIERARCHY
ROOT Hips
{
	OFFSET 0.000000 83.214638 0.000000
	CHANNELS 6 Xposition Yposition Zposition Xrotation Yrotation Zrotation
	JOINT Pelvis
	{
		OFFSET 0.000000 0.000000 0.000000
		CHANNELS 3 Xrotation Yrotation Zrotation
		JOINT LeftUpLeg
		{
			OFFSET 8.479700 -4.795502 -0.379100
			CHANNELS 3 Xrotation Yrotation Zrotation
			JOINT LeftLeg
			{
				OFFSET 0.024144 -32.555107 0.112900
				CHANNELS 3 Xrotation Yrotation Zrotation
				JOINT LeftFoot
				{
					OFFSET -0.024144 -32.638630 -3.012600
					CHANNELS 3 Xrotation Yrotation Zrotation
					JOINT LeftToeBase
					{
						OFFSET 0.970200 -13.225400 11.864200
						CHANNELS 3 Xrotation Yrotation Zrotation
						End Site
						{
							OFFSET 0.000000 12.319262 0.000000
						}
					}
					JOINT LFootTongue
					{
						OFFSET 1.142400 -1.059800 6.665200
						CHANNELS 3 Xrotation Yrotation Zrotation
						End Site
						{
							OFFSET 0.000000 12.319262 0.000000
						}
					}
				}
				JOINT LeftPantLeg
				{
					OFFSET 0.918482 -16.533964 -2.284700
					CHANNELS 3 Xrotation Yrotation Zrotation
					End Site
					{
						OFFSET 0.350399 24.744368 0.000000
					}
				}
			}
		}
		JOINT RightUpLeg
		{
			OFFSET -8.479700 -4.795502 -0.379100
			CHANNELS 3 Xrotation Yrotation Zrotation
			JOINT RightLeg
			{
				OFFSET -0.023144 -32.555092 0.112900
				CHANNELS 3 Xrotation Yrotation Zrotation
				JOINT RightFoot
				{
					OFFSET 0.023144 -32.638641 -3.012700
					CHANNELS 3 Xrotation Yrotation Zrotation
					JOINT RightToeBase
					{
						OFFSET -0.970200 -13.225400 11.864200
						CHANNELS 3 Xrotation Yrotation Zrotation
						End Site
						{
							OFFSET 0.000000 12.319244 0.000000
						}
					}
					JOINT RFootTongue
					{
						OFFSET -1.142200 -1.059800 6.665200
						CHANNELS 3 Xrotation Yrotation Zrotation
						End Site
						{
							OFFSET 0.000000 12.319243 0.000000
						}
					}
				}
				JOINT RightPantLeg
				{
					OFFSET -0.919482 -16.533978 -2.284800
					CHANNELS 3 Xrotation Yrotation Zrotation
					End Site
					{
						OFFSET -0.350400 24.744419 0.000000
					}
				}
			}
		}
	}
	JOINT Spine
	{
		OFFSET 0.000000 7.722000 1.166200
		CHANNELS 3 Xrotation Yrotation Zrotation
		JOINT Spine1
		{
			OFFSET 0.000000 12.024101 0.248800
			CHANNELS 3 Xrotation Yrotation Zrotation
			JOINT Spine2
			{
				OFFSET 0.000000 11.502998 -0.491200
				CHANNELS 3 Xrotation Yrotation Zrotation
				JOINT Neck
				{
					OFFSET 0.000000 18.430702 -3.123100
					CHANNELS 3 Xrotation Yrotation Zrotation
					JOINT Head
					{
						OFFSET 0.000000 9.051102 1.034000
						CHANNELS 3 Xrotation Yrotation Zrotation
						JOINT HairB
						{
							OFFSET 0.208400 24.786102 24.822300
							CHANNELS 3 Xrotation Yrotation Zrotation
							End Site
							{
								OFFSET 0.000000 32.263779 0.000000
							}
						}
						JOINT HairA
						{
							OFFSET -7.081100 24.428299 23.196600
							CHANNELS 3 Xrotation Yrotation Zrotation
							End Site
							{
								OFFSET 0.000000 32.263779 0.000000
							}
						}
						JOINT Hat
						{
							OFFSET 16.728800 15.048294 -15.439601
							CHANNELS 3 Xrotation Yrotation Zrotation
							End Site
							{
								OFFSET 0.000000 32.263779 0.000000
							}
						}
					}
				}
				JOINT LeftShoulder
				{
					OFFSET 6.197800 13.665199 -4.064700
					CHANNELS 3 Xrotation Yrotation Zrotation
					JOINT LeftArm
					{
						OFFSET 7.778100 -0.187103 -1.709300
						CHANNELS 3 Xrotation Yrotation Zrotation
						JOINT LeftForeArm
						{
							OFFSET 22.049376 0.000000 0.000000
							CHANNELS 3 Xrotation Yrotation Zrotation
							JOINT LeftHand
							{
								OFFSET 23.009392 0.000000 0.000000
								CHANNELS 3 Xrotation Yrotation Zrotation
								JOINT LeftHandThumb1
								{
									OFFSET 3.507191 -2.063065 3.133727
									CHANNELS 3 Xrotation Yrotation Zrotation
									JOINT LeftHandThumb2
									{
										OFFSET 3.101337 -1.790558 1.790558
										CHANNELS 3 Xrotation Yrotation Zrotation
										JOINT LeftHandThumb3
										{
											OFFSET 3.058640 -1.765907 1.765906
											CHANNELS 3 Xrotation Yrotation Zrotation
											End Site
											{
												OFFSET -0.415260 3.926476 -0.049563
											}
										}
									}
								}
								JOINT LeftHandIndex1
								{
									OFFSET 11.334419 -0.901459 3.706815
									CHANNELS 3 Xrotation Yrotation Zrotation
									JOINT LeftHandIndex2
									{
										OFFSET 3.283112 0.000000 0.000000
										CHANNELS 3 Xrotation Yrotation Zrotation
										JOINT LeftHandIndex3
										{
											OFFSET 3.323853 0.000000 0.000000
											CHANNELS 3 Xrotation Yrotation Zrotation
											End Site
											{
												OFFSET -1.135597 3.097809 0.402452
											}
										}
									}
								}
								JOINT LeftHandMiddle1
								{
									OFFSET 11.335861 0.000000 0.000000
									CHANNELS 3 Xrotation Yrotation Zrotation
									JOINT LeftHandMiddle2
									{
										OFFSET 3.410492 0.000000 0.000000
										CHANNELS 3 Xrotation Yrotation Zrotation
										JOINT LeftHandMiddle3
										{
											OFFSET 3.312172 0.000000 0.000000
											CHANNELS 3 Xrotation Yrotation Zrotation
											End Site
											{
												OFFSET -1.150200 3.080154 0.400270
											}
										}
									}
								}
								JOINT LeftHandRing1
								{
									OFFSET 11.514786 -0.013176 -3.003090
									CHANNELS 3 Xrotation Yrotation Zrotation
									JOINT LeftHandRing2
									{
										OFFSET 3.053307 0.000000 0.000000
										CHANNELS 3 Xrotation Yrotation Zrotation
										JOINT LeftHandRing3
										{
											OFFSET 3.295807 0.000000 0.000000
											CHANNELS 3 Xrotation Yrotation Zrotation
											End Site
											{
												OFFSET -1.281006 3.013344 0.375733
											}
										}
									}
								}
								JOINT LeftHandPinky1
								{
									OFFSET 10.518692 -0.960396 -5.730441
									CHANNELS 3 Xrotation Yrotation Zrotation
									JOINT LeftHandPinky2
									{
										OFFSET 2.861649 0.000000 0.000000
										CHANNELS 3 Xrotation Yrotation Zrotation
										JOINT LeftHandPinky3
										{
											OFFSET 2.863380 0.000000 0.000000
											CHANNELS 3 Xrotation Yrotation Zrotation
											End Site
											{
												OFFSET -0.843597 2.711159 0.369971
											}
										}
									}
								}
							}
							JOINT LSleeve
							{
								OFFSET 6.676277 -0.344902 -1.011730
								CHANNELS 3 Xrotation Yrotation Zrotation
								End Site
								{
									OFFSET 0.000000 14.885353 0.000000
								}
							}
						}
					}
				}
				JOINT RightShoulder
				{
					OFFSET -6.197800 13.665199 -4.064700
					CHANNELS 3 Xrotation Yrotation Zrotation
					JOINT RightArm
					{
						OFFSET -7.778100 -0.187103 -1.709300
						CHANNELS 3 Xrotation Yrotation Zrotation
						JOINT RightForeArm
						{
							OFFSET -22.049376 0.000000 0.000000
							CHANNELS 3 Xrotation Yrotation Zrotation
							JOINT RightHand
							{
								OFFSET -23.009392 0.000000 0.000000
								CHANNELS 3 Xrotation Yrotation Zrotation
								JOINT RightHandThumb1
								{
									OFFSET -3.507191 -2.063065 3.133727
									CHANNELS 3 Xrotation Yrotation Zrotation
									JOINT RightHandThumb2
									{
										OFFSET -3.101337 -1.790558 1.790558
										CHANNELS 3 Xrotation Yrotation Zrotation
										JOINT RightHandThumb3
										{
											OFFSET -3.058640 -1.765907 1.765906
											CHANNELS 3 Xrotation Yrotation Zrotation
											End Site
											{
												OFFSET 0.415260 3.926476 -0.049563
											}
										}
									}
								}
								JOINT RightHandIndex1
								{
									OFFSET -11.334419 -0.901459 3.706815
									CHANNELS 3 Xrotation Yrotation Zrotation
									JOINT RightHandIndex2
									{
										OFFSET -3.283112 0.000000 0.000000
										CHANNELS 3 Xrotation Yrotation Zrotation
										JOINT RightHandIndex3
										{
											OFFSET -3.323853 0.000000 0.000000
											CHANNELS 3 Xrotation Yrotation Zrotation
											End Site
											{
												OFFSET 1.135597 3.097809 0.402452
											}
										}
									}
								}
								JOINT RightHandMiddle1
								{
									OFFSET -11.335861 0.000000 0.000000
									CHANNELS 3 Xrotation Yrotation Zrotation
									JOINT RightHandMiddle2
									{
										OFFSET -3.410492 0.000000 0.000000
										CHANNELS 3 Xrotation Yrotation Zrotation
										JOINT RightHandMiddle3
										{
											OFFSET -3.312172 0.000000 0.000000
											CHANNELS 3 Xrotation Yrotation Zrotation
											End Site
											{
												OFFSET 1.150200 3.080154 0.400270
											}
										}
									}
								}
								JOINT RightHandRing1
								{
									OFFSET -11.514786 -0.013176 -3.003090
									CHANNELS 3 Xrotation Yrotation Zrotation
									JOINT RightHandRing2
									{
										OFFSET -3.053307 0.000000 0.000000
										CHANNELS 3 Xrotation Yrotation Zrotation
										JOINT RightHandRing3
										{
											OFFSET -3.295807 0.000000 0.000000
											CHANNELS 3 Xrotation Yrotation Zrotation
											End Site
											{
												OFFSET 1.281006 3.013344 0.375733
											}
										}
									}
								}
								JOINT RightHandPinky1
								{
									OFFSET -10.518692 -0.960396 -5.730441
									CHANNELS 3 Xrotation Yrotation Zrotation
									JOINT RightHandPinky2
									{
										OFFSET -2.861649 0.000000 0.000000
										CHANNELS 3 Xrotation Yrotation Zrotation
										JOINT RightHandPinky3
										{
											OFFSET -2.863380 0.000000 0.000000
											CHANNELS 3 Xrotation Yrotation Zrotation
											End Site
											{
												OFFSET 0.843597 2.711159 0.369971
											}
										}
									}
								}
							}
							JOINT RSleeve
							{
								OFFSET -6.676277 -0.344902 -1.011730
								CHANNELS 3 Xrotation Yrotation Zrotation
								End Site
								{
									OFFSET 0.000000 14.885353 0.000000
								}
							}
						}
					}
				}
				JOINT Backpack
				{
					OFFSET 0.000000 -2.471497 36.677502
					CHANNELS 3 Xrotation Yrotation Zrotation
					End Site
					{
						OFFSET 0.000000 20.427315 0.000000
					}
				}
				JOINT Hood
				{
					OFFSET 0.000000 18.754097 -10.431000
					CHANNELS 3 Xrotation Yrotation Zrotation
					JOINT Hood1
					{
						OFFSET 0.000000 -5.011002 -7.685901
						CHANNELS 3 Xrotation Yrotation Zrotation
						End Site
						{
							OFFSET 0.000000 9.175140 0.000000
						}
					}
				}
				JOINT LHoodieString
				{
					OFFSET 5.250500 16.397697 3.089900
					CHANNELS 3 Xrotation Yrotation Zrotation
					JOINT LHoodieString1
					{
						OFFSET 0.257700 -6.364304 3.694600
						CHANNELS 3 Xrotation Yrotation Zrotation
						JOINT LHoodieString2
						{
							OFFSET 0.000000 -9.643799 2.679100
							CHANNELS 3 Xrotation Yrotation Zrotation
							End Site
							{
								OFFSET 0.000000 10.009018 0.000000
							}
						}
					}
				}
				JOINT RHoodieString
				{
					OFFSET -5.250500 16.397697 3.089900
					CHANNELS 3 Xrotation Yrotation Zrotation
					JOINT RHoodieString1
					{
						OFFSET -0.257700 -6.364304 3.694600
						CHANNELS 3 Xrotation Yrotation Zrotation
						JOINT RHoodieString2
						{
							OFFSET 0.000000 -9.643799 2.679100
							CHANNELS 3 Xrotation Yrotation Zrotation
							End Site
							{
								OFFSET 0.000000 10.009018 0.000000
							}
						}
					}
				}
			}
			JOINT LBackpack_Strap
			{
				OFFSET 15.223200 -7.719803 -6.610900
				CHANNELS 3 Xrotation Yrotation Zrotation
				End Site
				{
					OFFSET 0.000000 16.040596 0.000000
				}
			}
			JOINT RBackpack_Strap
			{
				OFFSET -15.223000 -7.719803 -6.610900
				CHANNELS 3 Xrotation Yrotation Zrotation
				End Site
				{
					OFFSET 0.000000 16.040596 0.000000
				}
			}
		}
	}
	JOINT BoyFacialAnim_Joint
	{
		OFFSET 1.000000 -82.208099 -1.550900
		CHANNELS 3 Xrotation Yrotation Zrotation
		End Site
		{
			OFFSET 0.000000 30.012791 0.000000
		}
	}
}
MOTION
Frames: 5
Frame Time: 0.033333
-2.564189 66.799896 0.677059 4.628666 -51.081421 -1.427228 0.000000 0.000001 0.000000 -47.631998 2.016035 44.181376 48.114141 -9.869083 2.051029 -10.961477 -16.217647 -27.551648 -0.000000 0.000000 0.000000 -0.000000 0.000000 0.000000 -0.000002 0.000000 0.000000 -32.015989 -9.268977 -30.145733 49.634694 9.367443 -7.907772 -19.010828 -5.043956 30.213431 0.000000 -0.000002 0.000000 0.000000 -0.000002 0.000000 0.000001 0.000001 0.000002 5.566413 0.717536 2.781756 11.401783 1.207176 3.023736 11.390831 1.323215 3.005636 -2.217035 5.946759 0.736841 6.299368 33.289123 -26.855933 0.000003 0.000000 -0.000000 0.000003 0.000000 -0.000000 0.000003 0.000000 -0.000000 0.323126 4.486084 -5.825403 -38.415224 3.146336 -47.762225 0.000003 -80.598227 -0.000005 -6.734847 -17.839756 -17.850167 15.482429 -7.506491 -9.163073 104.737590 41.403364 -77.048386 0.000002 -0.000000 0.000002 8.128256 6.767785 -100.465676 7.639878 6.839440 -96.345084 -0.000004 -0.000001 -0.000004 8.126318 6.768141 -100.449468 7.641798 6.839226 -96.361306 -0.000000 0.000001 -0.000001 8.128226 6.767766 -100.465669 7.639872 6.839446 -96.345091 0.000002 0.000001 -0.000004 12.140458 6.033204 -100.402695 7.637095 2.753296 -96.311753 -0.000003 -0.000001 0.000001 -0.000001 0.000000 0.000001 -0.028368 -0.965043 -6.132157 -33.249016 31.365321 64.805429 0.000246 100.356775 -0.000249 -2.979999 22.078728 1.945902 20.791391 -26.827294 29.227312 107.876739 -60.017268 67.953231 0.000007 0.000001 0.000000 7.883498 -6.885299 97.754227 8.081462 -6.855638 99.409230 -0.000000 0.000001 0.000002 7.883477 -6.885298 97.754221 8.081448 -6.855639 99.409210 0.000002 0.000001 -0.000000 7.883473 -6.885272 97.754221 8.081444 -6.855642 99.409223 -0.000004 0.000001 0.000002 7.883463 -6.885273 97.754227 8.081476 -6.855665 99.409216 -0.000001 0.000000 0.000000 -0.000001 0.000001 -0.000001 -0.000000 0.000001 0.000001 -0.000000 0.000001 0.000001 -0.000000 0.000001 0.000001 -0.000000 0.000001 0.000001 -0.000000 0.000001 0.000000 -0.000001 0.000001 -0.000001 -0.000000 0.000001 0.000001 -0.000000 0.000001 0.000000 -0.000001 0.000001 -0.000001 -0.000000 -0.000000 -0.000001 -0.000000 -0.000000 -0.000001 0.000000 0.000001 0.000000 
-2.153547 67.557289 1.106603 5.946775 -51.525175 -0.131769 -0.000000 0.000003 -0.000000 -47.034947 2.634323 43.030089 46.832609 -9.688295 1.859997 -10.505494 -14.853409 -26.936098 0.000000 0.000000 -0.000000 0.000000 0.000000 -0.000000 -0.000001 0.000000 0.000001 -31.675320 -9.455048 -29.826760 46.293543 9.298737 -8.138433 -16.744721 -4.950531 30.229154 0.000000 -0.000000 -0.000000 0.000000 -0.000000 -0.000000 -0.000002 0.000003 -0.000001 5.406916 0.707901 2.393056 11.072555 1.171587 2.535107 11.063237 1.269820 2.519639 -1.692938 5.765576 0.897718 6.745540 32.718788 -26.387678 -0.000002 0.000000 -0.000000 -0.000002 0.000000 -0.000000 -0.000002 0.000000 -0.000000 0.305492 4.578178 -5.616231 -35.798715 4.391152 -44.964133 0.000011 -81.909097 0.000018 -8.105300 -17.058872 -18.893893 15.482430 -7.506487 -9.163073 104.737590 41.403374 -77.048386 0.000002 -0.000001 0.000001 8.128256 6.767785 -100.465676 7.639876 6.839436 -96.345077 -0.000003 0.000000 -0.000002 8.126320 6.768146 -100.449468 7.641797 6.839225 -96.361306 0.000003 0.000002 -0.000003 8.128233 6.767769 -100.465676 7.639878 6.839446 -96.345091 -0.000002 -0.000002 -0.000004 12.140461 6.033205 -100.402695 7.637097 2.753297 -96.311753 -0.000001 -0.000002 -0.000001 0.000001 0.000002 0.000001 -0.013199 -0.928248 -5.872787 -28.918837 30.693883 60.939317 0.000154 100.883800 -0.000171 -2.822376 22.365116 1.971185 20.791381 -26.827294 29.227308 107.876745 -60.017268 67.953231 0.000001 0.000002 -0.000001 7.883485 -6.885307 97.754234 8.081462 -6.855634 99.409230 0.000002 -0.000001 -0.000002 7.883462 -6.885303 97.754227 8.081447 -6.855635 99.409216 -0.000004 0.000003 0.000000 7.883468 -6.885275 97.754221 8.081446 -6.855642 99.409223 -0.000002 -0.000001 0.000002 7.883453 -6.885280 97.754234 8.081482 -6.855666 99.409216 -0.000000 -0.000000 0.000000 -0.000000 -0.000000 -0.000000 -0.000001 0.000000 0.000001 -0.000001 0.000000 0.000001 -0.000001 0.000000 0.000001 -0.000001 0.000000 0.000001 -0.000001 0.000000 -0.000000 -0.000002 -0.000002 0.000000 -0.000001 0.000000 0.000001 -0.000001 0.000000 -0.000000 -0.000002 -0.000002 0.000000 -0.000000 0.000002 -0.000001 -0.000000 0.000002 -0.000001 -0.000000 0.000003 -0.000000 
-1.666252 68.234093 1.438140 7.751927 -51.759129 1.447288 0.000000 -0.000002 0.000000 -46.976583 2.928464 41.866908 45.621067 -9.485137 1.641998 -9.847871 -13.579137 -26.291083 -0.000000 -0.000000 0.000000 -0.000000 -0.000000 0.000000 -0.000000 -0.000001 0.000002 -31.572143 -9.536157 -29.381455 43.068567 9.273355 -8.253665 -14.593842 -5.093131 29.980374 -0.000000 -0.000001 0.000000 -0.000000 -0.000001 0.000000 0.000002 0.000001 0.000000 5.215972 0.753981 2.021821 10.690743 1.227387 2.036328 10.682204 1.310066 2.022626 -1.476516 5.555322 1.041800 6.445354 32.004784 -25.839393 0.000001 -0.000001 0.000000 0.000001 -0.000001 0.000000 0.000001 -0.000001 0.000000 0.247314 4.691531 -4.852700 -35.189705 5.731690 -43.099494 -0.000053 -82.630153 -0.000027 -8.946678 -17.177470 -20.139479 15.482432 -7.506488 -9.163069 104.737597 41.403364 -77.048393 -0.000004 -0.000001 -0.000001 8.128256 6.767788 -100.465676 7.639874 6.839447 -96.345077 -0.000008 -0.000002 -0.000002 8.126325 6.768141 -100.449468 7.641795 6.839226 -96.361306 0.000004 0.000001 -0.000001 8.128232 6.767771 -100.465676 7.639877 6.839442 -96.345091 -0.000000 0.000002 -0.000002 12.140461 6.033204 -100.402695 7.637096 2.753298 -96.311760 0.000001 0.000003 0.000000 0.000001 -0.000002 -0.000002 -0.038425 -0.998846 -6.268839 -26.404417 29.414657 58.450061 -0.000055 101.548097 0.000066 -3.050070 22.663476 1.976258 20.791388 -26.827294 29.227319 107.876745 -60.017268 67.953231 -0.000003 0.000001 0.000001 7.883491 -6.885303 97.754234 8.081457 -6.855644 99.409237 -0.000000 -0.000001 0.000002 7.883469 -6.885308 97.754227 8.081447 -6.855636 99.409210 0.000001 0.000002 0.000002 7.883473 -6.885276 97.754227 8.081443 -6.855648 99.409223 0.000003 0.000002 -0.000001 7.883460 -6.885278 97.754234 8.081480 -6.855664 99.409216 -0.000000 0.000000 0.000002 -0.000003 -0.000001 -0.000002 -0.000003 -0.000000 -0.000000 -0.000003 -0.000000 -0.000000 -0.000003 -0.000000 -0.000000 -0.000003 -0.000000 -0.000000 -0.000003 -0.000000 -0.000001 -0.000003 -0.000002 0.000001 -0.000003 -0.000000 -0.000000 -0.000003 -0.000000 -0.000001 -0.000003 -0.000002 0.000001 0.000002 0.000002 -0.000001 0.000002 0.000002 -0.000001 0.000000 -0.000002 0.000000 
-1.133633 68.683685 1.660766 9.575021 -51.783004 2.915611 0.000000 -0.000003 -0.000000 -47.506233 2.854226 40.924322 44.974091 -9.288219 1.428800 -9.245514 -12.647942 -25.661933 -0.000000 0.000000 -0.000000 -0.000000 0.000000 -0.000000 -0.000000 0.000003 -0.000001 -31.731300 -9.486285 -29.010798 40.559893 8.945807 -8.285198 -13.005401 -5.204186 29.878075 0.000000 0.000001 0.000000 0.000000 0.000001 0.000000 -0.000001 0.000002 -0.000003 5.052421 0.836362 1.733526 10.371727 1.350679 1.623988 10.363237 1.422686 1.610959 -1.563228 5.387164 1.064263 5.452631 31.348427 -25.294390 -0.000000 -0.000000 0.000000 -0.000000 -0.000000 0.000000 -0.000000 -0.000000 0.000000 0.176705 4.800541 -3.935246 -36.393222 6.536379 -42.062368 0.000232 -82.895950 0.000283 -9.132135 -17.794460 -20.768181 15.482437 -7.506485 -9.163069 104.737590 41.403367 -77.048393 -0.000002 -0.000002 -0.000001 8.128255 6.767784 -100.465676 7.639878 6.839440 -96.345077 -0.000001 0.000003 -0.000005 8.126322 6.768144 -100.449468 7.641795 6.839228 -96.361306 0.000003 -0.000001 -0.000000 8.128232 6.767770 -100.465669 7.639872 6.839449 -96.345091 -0.000005 -0.000002 -0.000001 12.140462 6.033205 -100.402695 7.637096 2.753297 -96.311753 -0.000004 0.000002 -0.000003 -0.000000 0.000001 -0.000000 -0.088668 -1.117036 -7.101198 -26.033177 27.876109 57.488534 -0.000198 102.249564 0.000230 -3.812120 22.643044 2.353857 20.791384 -26.827301 29.227315 107.876745 -60.017268 67.953238 -0.000000 -0.000000 -0.000000 7.883491 -6.885302 97.754227 8.081460 -6.855639 99.409237 -0.000004 -0.000001 0.000002 7.883471 -6.885305 97.754221 8.081447 -6.855639 99.409210 0.000005 -0.000000 0.000003 7.883469 -6.885273 97.754227 8.081444 -6.855640 99.409223 0.000002 0.000000 0.000002 7.883459 -6.885279 97.754227 8.081479 -6.855667 99.409216 -0.000003 -0.000001 -0.000002 0.000001 -0.000000 -0.000001 0.000001 -0.000002 0.000000 0.000001 -0.000002 0.000000 0.000001 -0.000002 0.000000 0.000001 -0.000002 0.000000 0.000001 -0.000002 0.000001 -0.000003 -0.000002 0.000001 0.000001 -0.000002 0.000000 0.000001 -0.000002 0.000001 -0.000003 -0.000002 0.000001 0.000003 0.000001 -0.000001 0.000003 0.000001 -0.000001 0.000000 -0.000003 -0.000000 
-0.581678 68.798958 1.767843 10.955549 -51.699672 3.965074 0.000000 0.000002 -0.000001 -48.473771 2.419649 40.267643 45.253442 -9.121239 1.302083 -8.973193 -12.162441 -25.150432 -0.000000 0.000000 0.000000 -0.000000 0.000000 0.000000 0.000001 0.000000 0.000000 -32.171461 -9.231655 -28.875444 39.148401 8.289647 -8.291202 -11.936330 -4.967570 30.186933 -0.000000 0.000000 0.000000 -0.000000 0.000000 0.000000 -0.000002 0.000001 0.000001 4.979172 0.927967 1.518270 10.239978 1.498223 1.322317 10.231276 1.563669 1.309082 -1.854869 5.293232 0.940187 3.752764 30.947580 -24.894252 0.000001 0.000000 -0.000000 0.000001 0.000000 -0.000000 0.000001 0.000000 -0.000000 0.120455 4.915940 -3.243674 -38.909866 6.247015 -41.438809 0.000007 -82.832607 -0.000000 -8.930746 -18.174179 -20.565056 15.482427 -7.506488 -9.163073 104.737597 41.403370 -77.048386 -0.000005 -0.000001 -0.000001 8.128260 6.767781 -100.465676 7.639878 6.839437 -96.345084 -0.000004 0.000000 -0.000002 8.126323 6.768141 -100.449475 7.641793 6.839227 -96.361306 0.000002 -0.000000 -0.000003 8.128231 6.767765 -100.465669 7.639879 6.839448 -96.345098 -0.000001 0.000004 -0.000003 12.140459 6.033200 -100.402702 7.637093 2.753296 -96.311760 -0.000002 0.000001 -0.000003 -0.000000 -0.000003 -0.000003 -0.141429 -1.204586 -8.062865 -27.894738 26.454238 57.755642 0.000054 102.737861 -0.000068 -5.245825 22.382569 3.426409 20.791383 -26.827296 29.227315 107.876739 -60.017275 67.953238 -0.000002 -0.000002 -0.000002 7.883495 -6.885305 97.754227 8.081460 -6.855635 99.409230 -0.000001 0.000001 0.000004 7.883471 -6.885305 97.754227 8.081447 -6.855639 99.409210 0.000007 0.000001 0.000004 7.883471 -6.885275 97.754227 8.081443 -6.855645 99.409223 -0.000001 0.000001 0.000000 7.883455 -6.885278 97.754234 8.081479 -6.855669 99.409216 0.000000 0.000001 0.000002 0.000002 0.000001 0.000001 -0.000000 0.000002 0.000001 -0.000000 0.000002 0.000001 -0.000000 0.000002 0.000001 -0.000000 0.000002 0.000001 -0.000000 0.000002 -0.000000 -0.000001 0.000002 -0.000001 -0.000000 0.000002 0.000001 -0.000000 0.000002 -0.000000 -0.000001 0.000002 -0.000001 0.000001 0.000002 -0.000001 0.000001 0.000002 -0.000001 0.000000 0.000002 -0.000001 
